# xmcd
#
# Track frame offsets: 
#        150
#        16861
#        33256
#        47342
#        64841
#        78863
#        92838
#        108498
#        123932
#        137042
#        154122
#        168994
#        185699
#        200024
#        217274
#        229323
#        248158
#        262357
#        279307
#        296218
#        312190
#
# Disc length: 4362 seconds
#
# Revision: 0
# Processed by: cddbd v1.5.2PL0 Copyright (c) Steve Scherf et al.
# Submitted via: ExactAudioCopy v1.1
#
DISCID=36110815
DTITLE=Various Artist - Vlaamse Top Hits 2015 Vol. 1
DYEAR=2015
DGENRE=Chanson
TTITLE0=Stan Van Samang - Goeiemorgend, Goeiendag (Live)
TTITLE1=Slongs Dievanongs Feat. Sista Flex - Danse Me A
TTITLE2=Christoff - Vaarwel (Live)
TTITLE3=Kate Ryan - Sweet Friend Of Mine (Live)
TTITLE4=De Romeo's - Wat Ze Doet
TTITLE5=Lindsay and Jan Smit - Duizend En Eén Nacht
TTITLE6=Willy Sommers - Liefste
TTITLE7=Laura Lynn - Vuurwerk
TTITLE8=Matthias Lens - Samen Uit, Samen Thuis
TTITLE9=K3 - K3 Loves You
TTITLE10=Yves Segers - Wonderbaar
TTITLE11=Lissa Lewis - Hartsvriendinnen
TTITLE12=Maartje Van Neygen - Nood Aan Jou
TTITLE13=Bart Herman - Mijn Prachtige Vlaanderen
TTITLE14=Lisa Del Bo - Mama, Is Het Eenzaam Daar?
TTITLE15=Jo Vally - Dag Vrouw Van Mij
TTITLE16=Liliane Saint-Pierre - Ik Praat Weer In M'n Slaap
TTITLE17=De Geest - Maan
TTITLE18=Thé and Vrienden - Iedereen Is Van De Wereld
TTITLE19=Safi and Spreej - Naast Mij
TTITLE20=Tourist LeMC - Koning Liefde
EXTD=
EXTT0=
EXTT1=
EXTT2=
EXTT3=
EXTT4=
EXTT5=
EXTT6=
EXTT7=
EXTT8=
EXTT9=
EXTT10=
EXTT11=
EXTT12=
EXTT13=
EXTT14=
EXTT15=
EXTT16=
EXTT17=
EXTT18=
EXTT19=
EXTT20=
PLAYORDER=
